<svg width="150" height="56" viewBox="0 0 150 56" fill="none" xmlns="http://www.w3.org/2000/svg">
<path d="M0 20.6183L6.68016 31.9189L9.35223 29.3582L2.05972 18.5029L0 20.6183Z" fill="url(#paint0_linear_205_861)"/>
<path d="M99.4231 11.7115L99.1448 13.2146L102.318 12.1569L101.928 10.3198L99.4231 11.7115Z" fill="#0071B9"/>
<path d="M80.7186 1.52426L70.42 13.3259L73.4261 12.4909L83.2237 0.243896L80.7186 1.52426Z" fill="url(#paint1_linear_205_861)"/>
<path d="M135.886 17.6681L138.391 16.332L137.667 22.6782L135.886 17.6681Z" fill="#1D2C5E"/>
<path d="M120.132 21.7318L122.414 22.2328L125.253 20.8411L122.748 19.8948L120.132 21.7318Z" fill="#1D2C5E"/>
<path d="M42.6417 15.0516L42.9757 22.3441L46.1488 21.1194L45.2025 13.6599L42.6417 15.0516Z" fill="url(#paint2_linear_205_861)"/>
<path d="M122.581 12.825L120.076 14.2167L120.132 21.7318L122.692 20.4515L123.472 16.7774L122.581 12.825Z" fill="url(#paint3_linear_205_861)"/>
<path d="M122.247 22.2328L119.464 46.9494L123.917 46.0587L124.752 20.8967L122.247 22.2328Z" fill="#312370"/>
<path d="M127.647 48.1183L127.758 51.4584L136.275 54.1862L138.836 52.8501L130.43 46.337L121.969 45.6133L119.464 46.9493L127.647 48.1183Z" fill="#21386E"/>
<path d="M96.0273 42.2175L98.087 41.1041L99.4787 43.5535L101.427 42.4958L101.817 45.7246L114.231 47.9513L116.68 46.5596L99.5901 36.1497L87.4545 38.2094L85.1164 40.4918L96.0273 42.2175Z" fill="#21386E"/>
<path d="M92.0749 11.8228L89.5698 13.2145L85.1164 40.4918L87.6215 39.1558L91.9079 23.847L92.0749 11.8228Z" fill="url(#paint4_linear_205_861)"/>
<path d="M72.2571 15.4968L70.2531 16.5545L70.4201 17.2225L75.1518 14.2165L73.0921 11.9897L70.4201 13.3258L72.2571 15.4968Z" fill="#1D2C5E"/>
<path d="M77.6569 47.7286L57.4494 37.7084L59.9545 35.76L80.162 46.3369L77.6569 47.7286Z" fill="#21386E"/>
<path d="M59.3421 10.4313L56.2804 16.2207L59.5091 15.2744L61.8472 9.03955L59.3421 10.4313Z" fill="#1D2C5E"/>
<path d="M31.5081 34.4241L28.9474 36.2054C28.9474 36.2054 29.5041 39.1002 30.2278 41.1042C30.9514 43.1083 32.6215 44.7227 32.6215 44.7227C33.7348 45.7803 35.0152 46.5597 36.5182 47.005C39.3573 47.8401 42.5861 47.2834 45.3695 45.502C46.0931 45.0567 47.0952 44.333 47.7075 43.7206C44.9798 45.3907 31.5081 34.4241 31.5081 34.4241Z" fill="url(#paint5_linear_205_861)"/>
<path d="M45.3694 21.7875L47.7075 47.7844L57.3937 46.3927L59.9545 45.0567L47.9858 20.2288L45.5364 21.0638L42.9757 22.3441L45.3694 21.7875Z" fill="#1D2C5E"/>
<path d="M9.18524 30.8056L19.9848 55.2439L30.2277 51.9595L32.7328 50.2894L11.4676 28.0222L8.79556 29.6366L6.68018 31.919L9.18524 30.8056Z" fill="url(#paint6_linear_205_861)"/>
<path d="M116.012 42.3289L116.179 43.5536C117.07 43.4423 117.961 43.331 118.796 43.0526C119.742 42.7186 121.746 41.8279 122.47 41.1599C122.136 41.2712 117.46 42.4959 116.012 42.3289Z" fill="#1D2C5E"/>
<path d="M79.7723 36.0941L80.162 38.0425C82.2217 37.7085 84.003 36.9848 85.7844 35.9271C86.8978 35.2591 88.0668 34.3128 88.4565 34.0344C88.1781 34.2014 79.7723 36.0941 79.7723 36.0941Z" fill="#1D2C5E"/>
<path d="M22.7955 52.9136L22.0161 51.1322L11.7732 28.3083L11.5506 27.863L11.1052 28.0857L10.7712 28.2527L8.93415 29.1434C8.65581 28.698 8.21047 27.9187 7.93213 27.4176L3.8127 20.4591L2.755 18.6221L4.53638 17.5087C6.20642 16.451 8.09913 15.449 10.2145 14.5583C14.334 12.8326 18.5091 11.8863 22.3501 11.8863C23.6305 11.8863 24.8552 11.9976 25.9686 12.1646C27.8613 12.3873 29.6427 12.9996 31.09 14.0017C33.2611 15.2263 34.9868 17.1191 35.9331 19.3458C36.7125 21.1828 36.8795 23.3539 36.3785 25.5806L36.1001 26.9166L37.2135 26.1373C37.9372 25.5806 38.7165 25.1353 39.5516 24.8012C40.9989 24.1889 42.502 23.8549 44.005 23.8549C45.4524 23.8549 46.7884 24.1332 48.0131 24.6899L48.7925 25.0239L48.7368 24.1332L48.4028 20.4035L48.3471 19.7911L47.7904 19.9581L46.0647 20.4035L45.7864 14.0573L58.4787 9.99356L58.3674 14.948L59.3137 15.1707L62.0971 9.88222L70.3916 17.2304L70.7256 17.5644L71.0597 17.2304C72.173 16.1727 73.5647 15.282 75.0678 14.6697L75.6801 14.3913L75.2348 13.8346L73.7317 11.9976L83.251 1.03101L88.2611 8.49052L80.6346 12.61L78.9645 13.5006L80.9129 13.5563C84.5313 13.612 87.7601 15.1707 89.9311 17.8427L90.7105 18.8448L91.2115 19.4571L90.3765 20.3478L89.8198 20.9602L87.9271 23.0199L87.5931 23.4095L87.9827 23.7436L89.7641 25.3579L90.4321 25.9703L90.5991 25.0796L91.2671 20.8488L91.4342 19.7355L91.6012 18.6221L92.6032 12.3316H102.067L102.122 11.8863L102.289 10.8286H110.528L112.532 23.4095L112.644 24.2446L113.312 23.7436C114.147 23.1312 115.037 22.6859 115.984 22.2962C117.264 21.7952 118.544 21.5725 119.881 21.5725C121.439 21.5725 122.942 21.9065 124.223 22.6302C124.278 22.6302 124.278 22.6859 124.39 22.7415L125.002 22.9642L125.058 22.2962L125.225 20.9045L125.28 20.4591L124.835 20.3478L123.165 19.9581L123.109 13.3893L135.857 16.1727L136.804 20.9045H137.806L138.808 16.8407L149.44 19.4015L138.529 52.1899L130.791 49.7405L130.736 46.7344V46.2891L130.29 46.2334L122.553 45.1201L122.998 41.1676L123.109 40.2213L122.274 40.6666C121.885 40.8893 121.495 41.0563 121.105 41.1676C119.825 41.6687 118.544 41.8913 117.264 41.8913C116.874 41.8913 116.54 41.8913 116.151 41.8357L115.483 41.78L115.594 42.448L116.151 45.8994L104.85 43.8954L104.238 38.7739L104.071 37.1039L103.291 38.5512L102.011 41.0563L99.6173 36.6585L98.8937 35.3225L98.671 36.8255L98.17 40.2213L88.2611 38.6626L89.0404 33.9865L89.2074 32.9288L88.2611 33.4855C86.6467 34.4318 84.754 35.2112 82.5829 35.7122C81.8036 35.8792 81.0242 36.0462 80.1892 36.1019L79.7439 36.1575V45.5098L60.2601 35.8792L59.5364 35.5452V44.6191L50.7965 45.8994L50.4068 41.947L50.2955 40.8893L49.5161 41.613C48.3471 42.7263 47.0667 43.617 45.675 44.2294C44.2277 44.8417 42.7246 45.1757 41.2773 45.1757C39.7742 45.1757 38.3825 44.8417 37.1022 44.2851C34.7641 43.1717 33.0384 41.112 32.3147 38.4956C31.9807 37.2709 31.8694 35.9905 32.0364 34.6545L32.2034 33.2628L31.2014 34.2648C30.4777 34.9328 29.6983 35.6008 28.8633 36.2132L28.585 36.4359L28.6963 36.7699L31.6467 48.0148L32.1477 50.0189L30.1993 50.6312L24.6882 52.4126L22.7955 52.9136ZM25.2449 22.6859C24.9665 22.6859 24.6882 22.6859 24.3542 22.7415L23.9645 22.7972L23.4078 22.9085L23.5748 23.4652L23.6862 23.7992L25.2449 28.9763L25.4119 29.4774L25.6346 30.201L26.1912 29.7L26.5809 29.366C28.1396 27.9743 28.6406 26.5826 28.3066 24.8012C28.084 23.7436 27.3046 23.2425 26.8036 23.0199C26.4696 22.7972 25.8572 22.6859 25.2449 22.6859ZM67.6639 22.8529L66.6619 23.7992L64.0455 26.3043L63.4888 26.861L64.2125 27.1393L66.9959 28.197L67.8309 28.531L67.6639 27.6403C67.4412 26.4713 67.3856 25.3023 67.4969 24.1889L67.6639 22.8529ZM79.0202 19.9581C77.9625 19.9581 76.9048 20.4035 76.1811 21.2385C75.0678 22.4632 74.8451 24.3002 75.6244 25.7476L75.8471 26.1373L76.1811 26.7496L76.6821 26.1929L77.0161 25.8589L80.8572 21.5168L81.1356 21.1828L81.6366 20.6261L80.9686 20.3478L80.5232 20.1808C79.9665 20.0695 79.5212 19.9581 79.0202 19.9581Z" fill="#FFCB05"/>
<path d="M84.838 26.408L84.7267 26.5193C84.7824 26.5193 84.838 26.4636 84.838 26.408Z" fill="#7D7F68"/>
<path d="M88.1781 23.4018L90.0708 21.342L89.4028 22.0101V21.9544L88.8461 22.5667L86.9534 24.5708L88.7348 26.1852L89.0688 24.1811L89.9595 24.9605L88.1781 23.4018Z" fill="#7D7F68"/>
<path d="M88.1781 23.4018L89.9595 24.9605L90.6275 20.7297L90.0708 21.3421L88.1781 23.4018Z" fill="#7D7F68"/>
<path d="M74.9848 28.4676C75.1518 28.6346 74.9848 28.5233 75.1518 28.6346L76.3208 27.7996C76.1538 27.6883 75.9868 27.5212 75.8198 27.4099C74.1498 25.8512 74.5951 22.3998 75.6528 20.5071C72.7581 22.8451 72.9251 26.4079 74.9848 28.4676Z" fill="#C7A008"/>
<path d="M89.0688 30.4161C87.1205 32.0304 84.9494 33.0324 82.0547 33.7561C81.4423 33.9231 80.7743 34.0345 80.2176 34.0345C75.5972 34.4798 71.7561 32.3644 70.3087 28.9687C70.1417 28.579 69.9747 28.1337 69.8634 27.6883C69.1954 24.7936 69.752 22.2329 71.1994 20.1731C71.3664 19.9505 71.4777 19.7835 71.6447 19.6165C71.5891 19.6721 71.4777 19.7278 71.4221 19.7835C70.8654 20.2845 70.3644 20.7855 69.9747 21.3978C68.5273 23.4019 67.9707 26.0183 68.6387 28.913C68.75 29.3584 68.8613 29.8037 69.084 30.1934C70.5314 33.6448 74.4281 35.7602 78.9929 35.3148C79.6053 35.2592 80.2176 35.1478 80.8856 34.9808C83.7804 34.2571 86.0071 33.2551 87.8998 31.6407C88.3452 31.2511 88.8462 30.8057 89.2915 30.3604L89.2358 30.3047C89.1245 30.3604 89.0688 30.3604 89.0688 30.4161Z" fill="#C7A008"/>
<path d="M56.6144 21.6761L61.7358 14.4392L61.5132 14.2722L56.5587 21.2307L56.6144 21.6761Z" fill="#C7A008"/>
<path d="M90.6275 20.7297L89.9595 24.9605L89.0688 24.1812L88.7348 26.1852L86.9534 24.5708L88.8461 22.5668L89.4028 21.9544V22.0101L90.0708 21.3421L90.6275 20.7297Z" fill="#C7A008"/>
<path d="M84.2814 8.81676L86.0627 8.03741L82.7783 3.80664L81.7206 5.36534L84.2814 8.81676Z" fill="#C7A008"/>
<path d="M34.4029 19.2823C26.0527 9.15074 11.078 14.6062 5.73383 19.338L5.9565 19.7277C7.18119 19.004 8.51723 18.3916 9.85326 17.7793C15.1974 15.4969 20.3188 14.8289 24.3826 15.5526C25.83 15.7196 27.333 16.1649 28.669 17.0556C30.5061 18.1133 31.8978 19.5607 32.7328 21.4534C34.1802 24.7934 32.8998 29.2469 29.5041 32.921C33.7905 28.9686 36.7409 25.1831 34.4029 19.2823Z" fill="#C7A008"/>
<path d="M51.3816 31.0841C51.3259 30.9171 51.3259 30.6944 51.2702 30.5274C50.8249 28.8574 49.8229 27.5213 48.4868 26.6306C46.3714 25.1833 43.3654 24.9049 40.415 26.1296C38.8563 26.7977 37.5202 27.8553 36.4069 29.08C37.2419 28.3564 38.1882 27.7997 39.1903 27.3543C42.1407 26.074 45.1467 26.408 47.2621 27.8553C48.5982 28.746 49.6002 30.0821 50.0455 31.7521C50.1012 31.9191 50.1569 32.1418 50.1569 32.3088C50.2682 32.9768 50.3239 33.5891 50.3239 34.2572C50.2682 36.2055 49.5445 38.1539 48.3755 39.824C48.2085 40.1023 47.9858 40.325 47.7631 40.6033C48.4312 39.991 49.0435 39.3786 49.5445 38.6549C50.7692 36.9849 51.4372 35.0365 51.5486 33.0881C51.5486 32.4201 51.4929 31.7521 51.3816 31.0841Z" fill="#C7A008"/>
<path d="M43.1984 28.6345C43.1984 28.6345 44.4231 27.4098 44.3674 27.4098C42.8644 27.3541 42.1964 28.8015 42.1407 28.9128C42.4747 28.7458 42.8087 28.6901 43.1984 28.6345Z" fill="#C7A008"/>
<path d="M46.0374 30.3602C46.0931 30.5829 46.1488 30.7499 46.1488 30.9725C46.1488 31.3066 46.0931 31.5849 45.9261 31.8632C46.1488 31.7519 47.9301 30.8612 47.2621 29.0798C47.3178 29.1912 45.9818 30.3602 46.0374 30.3602Z" fill="#C7A008"/>
<path d="M39.1346 31.418C39.1346 30.6943 40.415 28.8572 40.8047 28.2449C38.8006 29.5252 37.9099 31.2509 37.9099 32.587C37.9099 34.925 39.9696 36.8177 42.419 36.8177C43.588 36.8177 45.7034 36.2054 47.0951 33.9787C46.3714 34.4797 44.5344 35.5931 43.5324 35.5931C41.083 35.5931 39.1346 33.756 39.1346 31.418Z" fill="#C7A008"/>
<path d="M56.3361 33.5333L56.3917 42.9412L57.8948 43.0525L57.5608 32.3086L56.3361 33.5333Z" fill="#C7A008"/>
<path d="M47.7632 15.5527V16.3877L54.8887 14.2723L55.3897 23.3462L56.6144 21.6762L56.3361 12.6023L47.7632 15.5527Z" fill="#C7A008"/>
<path d="M69.1954 18.7814L62.5709 12.658L61.7358 14.4393L67.6366 19.9505L69.1954 18.7814Z" fill="#C7A008"/>
<path d="M68.1933 30.1933L60.3441 27.5769L59.2308 28.8016L67.0243 31.919C67.915 33.5891 69.251 35.0364 70.9211 36.0384C72.5354 37.0405 74.4281 37.6528 76.3765 37.8198V41.6609L77.6012 42.2733L77.9909 36.4838L68.1933 30.1933Z" fill="#C7A008"/>
<path d="M80.7743 29.1357C82.7227 28.6903 83.7804 27.6883 84.7824 26.575C84.0587 27.1873 80.496 27.9667 79.8836 28.1337L78.7146 29.414C79.2156 29.414 80.1063 29.3027 80.7743 29.1357Z" fill="#C7A008"/>
<path d="M77.2672 15.7752C73.7044 16.2205 71.8674 19.2266 71.5891 19.5606C72.9251 18.4473 74.5394 17.6122 76.3765 17.2226C80.7743 16.1649 84.6154 17.5009 87.0091 20.4513L88.5121 19.2266C86.1184 16.3319 81.665 14.7175 77.2672 15.7752Z" fill="#C7A008"/>
<path d="M89.1802 30.3046C89.6255 29.9706 90.3492 29.5809 90.7945 29.1356L86.0628 24.9048C85.6731 25.3501 85.3947 26.0738 84.9494 26.4078L89.1802 30.3046Z" fill="#C7A008"/>
<path d="M113.507 41.661C108.553 37.5416 108.831 28.8017 111.28 26.0183L109.109 12.2683L104.322 12.8807L104.099 14.1054H107.718L109.666 26.575C107.217 29.3584 106.048 33.0881 106.827 36.5396C107.439 39.2116 109.109 41.327 111.447 42.5517C111.67 42.663 111.948 42.7744 112.171 42.8857L112.227 43.0527L113.674 43.2754C113.618 43.3311 113.785 41.7724 113.507 41.661Z" fill="#C7A008"/>
<path d="M94.413 14.2723L94.1903 15.4969H99.6458L101.26 24.3482L102.485 23.1235L101.204 13.7712L94.413 14.2723Z" fill="#C7A008"/>
<path d="M103.765 31.4181L101.984 35.9828L102.429 37.2075L104.934 30.249L103.765 31.4181Z" fill="#C7A008"/>
<path d="M98.5324 28.5789L97.3077 29.8036L95.9717 38.0424L97.252 38.4878L98.5324 28.5789Z" fill="#C7A008"/>
<path d="M123.082 25.907C123.806 26.408 124.418 27.076 124.863 27.8553C125.253 28.4677 125.476 29.08 125.698 29.8594C126.311 32.3644 125.587 35.0365 124.028 37.1519C123.861 37.3746 123.694 37.5972 123.527 37.7642C124.14 37.2076 131.933 31.4738 124.362 23.9586C116.012 21.2308 112.839 26.6306 112.561 27.0203C113.451 26.2966 114.453 25.6286 115.567 25.2389C118.35 24.1256 121.134 24.5153 123.082 25.907Z" fill="#C7A008"/>
<path d="M118.907 26.4635C118.907 26.5191 120.132 25.2388 120.132 25.2388C118.629 25.2944 117.905 26.0181 118.016 26.3521C117.905 26.4635 117.849 26.6305 117.794 26.7418C118.072 26.5748 118.684 26.4635 118.907 26.4635Z" fill="#C7A008"/>
<path d="M121.69 28.3563C121.746 28.579 121.746 28.746 121.746 28.9686C121.746 29.247 121.635 29.5253 121.523 29.748C121.746 29.6367 123.527 29.08 122.859 27.0759C122.915 27.1873 121.635 28.3563 121.69 28.3563Z" fill="#C7A008"/>
<path d="M117.738 34.6468C119.408 34.7025 121.301 33.7005 122.637 31.8634C119.241 32.5871 115.622 26.8533 115.957 26.2966C114.676 27.243 113.507 29.0244 113.451 30.3047C113.34 32.6428 115.288 34.5355 117.738 34.6468Z" fill="#C7A008"/>
<path d="M136.498 49.51L137.277 50.011L147.075 20.6183L139.727 18.9482L139.671 20.674L145.572 21.9543L136.498 49.51Z" fill="#C7A008"/>
<path d="M124.863 15.7754L124.919 17.4454L132.713 19.0041L135.719 33.2551L136.943 32.0305L134.049 17.6124L124.863 15.7754Z" fill="#C7A008"/>
<path d="M130.876 32.0304L128.704 44.166L129.929 44.5557L132.1 30.8057L130.876 32.0304Z" fill="#C7A008"/>
<path d="M29.7267 48.6194L26.1083 35.3704L24.7723 36.3167L28.168 48.9534L29.7267 48.6194Z" fill="#C7A008"/>
<path d="M28.7804 28.7458C27.9454 29.6365 26.0527 31.3622 24.995 32.0302L24.3269 29.9705L22.9352 25.4057L22.0446 22.344L21.1539 23.4574L22.0446 26.5191L23.4363 31.0282L24.1043 33.0879C25.6073 32.2529 27.7227 30.4715 28.7804 28.7458Z" fill="#C7A008"/>
<path d="M80.4403 20.8967C79.2713 20.4513 77.6569 20.5626 76.7662 21.5647C76.5435 21.7873 76.1539 22.344 76.0425 22.6224C76.8776 21.9544 78.4363 21.7873 79.3826 22.177L80.4403 20.8967Z" fill="#7D7F68"/>
<path d="M27.7783 25.0162C27.667 24.3482 26.999 23.7915 26.665 23.6245C26.1083 23.3461 25.0506 23.2905 24.3269 23.4575C24.4382 23.9028 24.6052 24.4595 24.6609 24.6822C24.9393 24.7378 25.4403 24.7935 25.7186 24.9048C26.0526 25.0718 26.6093 25.4058 26.7206 26.1295C26.8876 27.0202 26.832 27.9109 26.4423 28.5789C27.5 27.5769 28.001 26.4635 27.7783 25.0162Z" fill="#7D7F68"/>
<path d="M29.587 24.9683C29.086 22.2963 25.5789 20.7932 22.0718 22.6859L22.9625 25.7477L24.3542 30.3125L25.0222 32.3722C27.6386 30.7578 30.255 28.6981 29.587 24.9683ZM26.1356 29.1434C25.7459 27.9187 24.9109 25.2467 24.9109 25.2467C24.9109 25.2467 24.7439 24.69 24.5212 24.022C25.2449 23.9106 25.9686 23.9663 26.5253 24.2446C26.8593 24.4117 27.416 24.7457 27.5273 25.4693C27.8613 26.9167 27.3603 28.0301 26.1356 29.1434Z" fill="#3C5AA6"/>
<path d="M82.2489 20.7374C80.3006 18.956 77.2945 19.0674 75.5131 21.0158C73.7317 22.9641 73.8431 25.9702 75.7915 27.7516C75.9585 27.9186 76.1255 28.0299 76.2925 28.1413L82.583 21.0158C82.4716 20.9601 82.3603 20.8488 82.2489 20.7374ZM76.3481 25.7475C75.7358 24.6342 75.8471 23.1868 76.7935 22.1848C77.6842 21.2384 79.0202 20.9601 80.1892 21.4054L76.3481 25.7475Z" fill="#3567B0"/>
<path d="M90.6275 19.9504L87.1761 23.2905L90.4605 26.2409L90.6275 19.9504Z" fill="#1E2D5F"/>
<path d="M122.859 27.1316C122.915 27.3542 122.915 27.5769 122.915 27.7996C122.859 29.1356 121.635 30.1376 120.132 30.082C118.629 30.0263 117.46 28.9129 117.515 27.5769C117.571 26.3522 118.684 25.3502 120.02 25.2945C119.742 25.2388 119.464 25.1832 119.185 25.1832C116.68 25.0718 114.676 26.8532 114.565 29.0243C114.453 31.3623 116.346 33.3107 118.796 33.3664C121.301 33.4777 123.305 31.6963 123.416 29.3583C123.583 28.5789 123.305 27.7996 122.859 27.1316Z" fill="#3466AF"/>
<path d="M47.3735 29.8036C47.3735 31.1397 46.1488 32.1974 44.7014 32.1974C43.1984 32.1974 42.0294 31.1397 42.0294 29.8036C42.0294 28.5789 43.0871 27.5213 44.4788 27.4099C44.2004 27.3542 43.9221 27.3542 43.6437 27.3542C41.1387 27.3542 39.1903 29.1913 39.1903 31.418C39.1903 33.7561 41.1387 35.5931 43.5881 35.5931C46.0931 35.5931 48.0415 33.7561 48.0415 31.418C48.0415 30.583 47.7632 29.8593 47.3178 29.1913C47.3178 29.3583 47.3735 29.581 47.3735 29.8036Z" fill="url(#paint7_linear_205_861)"/>
<path d="M138.362 16.3398L137.249 20.9045L136.247 15.8388L122.553 12.8327L122.664 20.4592L124.724 20.9045L124.557 22.2962C124.557 22.2962 124.501 22.2962 124.501 22.2406C121.94 20.9045 118.767 20.7375 115.817 21.9066C114.815 22.2962 113.868 22.7973 113.033 23.4096L110.974 10.3833H101.9L101.677 11.8863H92.1022L90.9888 18.5665L90.2094 17.5645C87.8714 14.7254 84.5313 13.1667 80.8016 13.0554L88.9291 8.71325L83.2509 0.251709L73.008 12.0533L74.7894 14.2244C73.175 14.8924 71.7833 15.7831 70.6143 16.8964L61.8188 9.10292L58.757 14.9481L58.8684 9.26993L45.1184 13.6677L45.508 21.0159L47.8461 20.4035L48.1801 24.1333C45.508 22.9086 42.2793 22.9643 39.3289 24.2446C38.4382 24.6343 37.6032 25.0796 36.8795 25.6363C37.3805 23.3539 37.2692 21.1272 36.3785 19.1232C35.3765 16.7851 33.5394 14.7811 31.3684 13.5564C29.8096 12.4987 27.9726 11.8863 26.0242 11.6637C21.2924 10.8286 15.5586 11.6637 9.93617 14.0574C7.87645 14.9481 5.92807 15.9501 4.20236 17.0634L2.03131 18.4552L3.36734 20.6819L7.48678 27.696L8.76714 29.8114L10.9939 28.6981L11.3279 28.5311L21.5708 51.3549L22.5728 53.526L24.8552 52.8023L30.3663 51.0209L32.8157 50.2416L32.2034 47.7922L29.253 36.5473C30.088 35.9349 30.8673 35.2669 31.591 34.5432C31.424 35.8792 31.5354 37.2709 31.8694 38.5513C32.6487 41.279 34.4301 43.4501 36.9352 44.6191C39.6072 45.8995 42.8916 45.8995 45.8977 44.6191C47.4007 43.9511 48.7924 43.0604 49.9058 41.8914L50.2955 46.4005L59.9817 44.9531V36.2689L80.1892 46.2892V36.6586C81.0242 36.6029 81.8036 36.4359 82.6386 36.2689C84.8653 35.7122 86.758 34.9885 88.4837 33.9865L87.6487 39.1637L98.5596 40.8894L99.172 36.9369L102.011 42.2254L103.737 38.8853L104.349 44.3964L116.707 46.5675L116.039 42.3924C117.709 42.5594 119.491 42.3367 121.217 41.7244C121.606 41.5574 122.052 41.3904 122.386 41.1677L121.885 45.6211L130.123 46.7902L130.179 50.1859L138.752 52.858L149.941 19.1788L138.362 16.3398ZM90.0424 21.3499L90.5991 20.7375L89.9311 24.9683L88.1497 23.3539L90.0424 21.3499ZM82.8056 3.98147L85.8117 8.04523L77.2388 12.276L76.6265 11.3853C76.6265 11.441 82.8056 3.98147 82.8056 3.98147ZM26.0799 35.3782L29.4756 48.5159L23.9645 50.2973L12.6082 24.9126C11.9959 25.2466 10.8269 25.8033 9.82483 26.3043L5.7054 19.3458C7.31977 18.2881 9.15682 17.3975 11.0495 16.5624C16.3937 14.28 21.5151 13.612 25.5789 14.3357C27.0263 14.5027 28.5293 14.9481 29.8653 15.8388C31.7024 16.8964 33.0941 18.3438 33.9291 20.2365C35.9331 24.8013 32.6487 31.3701 26.0799 35.3782ZM51.5202 33.0402C51.4645 34.9885 50.7408 36.9369 49.5161 38.607C48.3471 40.2213 46.7884 41.5017 44.8957 42.3367C40.1082 44.3964 35.3208 42.3367 34.0404 37.772C32.8157 33.3742 35.7105 28.1414 40.3309 26.1373C43.2813 24.857 46.2874 25.191 48.4028 26.6383C49.7388 27.529 50.7408 28.8651 51.1862 30.5351C51.2418 30.7021 51.2975 30.9248 51.2975 31.0918C51.5202 31.7598 51.5202 32.4278 51.5202 33.0402ZM77.6285 42.3367L57.5323 32.3165L57.588 42.8377L52.4109 43.5614L52.0212 39.2193C53.6356 36.4916 54.1922 33.2072 53.3572 30.2568C52.9119 28.6424 52.0769 27.195 50.9078 26.0817L50.1841 17.2305L47.8461 17.8428L47.7347 15.6161L56.085 13.111L56.586 21.6839L62.7094 13.0554L68.7773 18.7892L60.3714 27.6404L68.2763 30.7578C69.1669 32.4278 70.503 33.8195 72.173 34.8772C73.7874 35.8792 75.6801 36.4916 77.6285 36.6586V42.3367ZM67.2186 27.7517L64.4352 26.694L67.0516 24.189C66.8845 25.358 66.9402 26.527 67.2186 27.7517ZM89.0404 30.4238C87.092 32.0381 84.921 33.0402 82.0262 33.7639C81.4139 33.9309 80.7459 34.0422 80.1892 34.0422C75.5688 34.4875 71.7277 32.3722 70.2803 28.9764C70.1133 28.5867 69.9463 28.1414 69.8349 27.696C69.1669 24.8013 69.7236 22.2406 71.171 20.1809C71.5607 19.5685 72.0617 19.0675 72.6184 18.5665C73.9544 17.3418 75.6801 16.5068 77.6285 16.0058C82.0262 14.9481 85.8673 16.2841 88.2611 19.1788L79.9109 28.0857C80.4675 28.1971 81.3582 28.03 82.0262 27.863C84.0303 27.362 85.1437 26.3043 86.09 25.191L89.4301 28.1971L90.4321 29.0877C89.9868 29.5888 89.5414 30.0341 89.0404 30.4238ZM106.799 42.2811L104.961 30.2568L102.401 36.8813L98.5596 28.5867H98.504L97.0009 38.2173L90.5991 37.1039L91.4898 31.7598C91.7125 31.5371 91.9908 31.3145 92.2135 31.0361L94.2732 28.9207L92.2692 27.0837L94.4402 14.28H100.898L102.512 23.1313L104.349 12.8883H108.97L110.918 25.358C108.469 28.1414 107.3 31.8711 108.079 35.3226C108.691 37.9946 110.361 40.11 112.699 41.3904C112.922 41.5017 113.2 41.613 113.423 41.7244L113.646 43.3388L106.799 42.2811ZM122.775 38.3286C122.052 38.8296 121.272 39.275 120.437 39.5533C118.767 40.1657 117.153 40.3327 115.65 39.9987C114.648 39.776 113.701 39.3863 112.866 38.8296C111.586 37.8833 110.64 36.5473 110.194 34.8215C109.693 32.7618 110.139 30.5351 111.252 28.5867C111.809 27.6404 112.532 26.7497 113.367 25.9703C114.314 25.1353 115.427 24.4116 116.596 23.9663C119.435 22.9086 122.219 23.2983 124.167 24.69C124.891 25.191 125.503 25.859 125.948 26.6383C126.282 27.2507 126.561 27.9187 126.728 28.6424C127.34 31.1475 126.616 33.8195 125.058 35.9349C124.557 36.8813 123.722 37.6606 122.775 38.3286ZM137.249 49.6849L132.517 48.2932L132.127 30.8134L129.734 44.2851L124.557 43.4501L124.946 39.5533C128.342 36.7143 130.123 32.2051 129.121 28.0857C128.676 26.3043 127.785 24.69 126.449 23.5209L126.895 18.9562L124.946 18.4552L125.002 16.0058L133.909 17.7871L136.915 31.9825L139.977 19.2345L146.768 20.7375L137.249 49.6849Z" fill="url(#paint8_linear_205_861)"/>
<path d="M143.624 47.7286H143.846C144.125 47.7286 144.347 47.6173 144.347 47.339C144.347 47.172 144.18 46.9493 143.846 46.9493H143.624V47.7286ZM143.624 48.8977H143.29V46.7823C143.457 46.7266 143.624 46.7266 143.902 46.7266C144.236 46.7266 144.459 46.7823 144.57 46.8936C144.681 47.005 144.793 47.1163 144.793 47.339C144.793 47.6173 144.626 47.7843 144.403 47.84C144.57 47.8957 144.737 48.0627 144.737 48.341C144.793 48.675 144.848 48.7863 144.848 48.842H144.514C144.459 48.7863 144.403 48.5637 144.347 48.2853C144.292 48.007 144.18 47.8956 143.902 47.8956H143.624V48.8977ZM144.013 46.1699C143.178 46.1699 142.51 46.8936 142.51 47.7843C142.51 48.675 143.178 49.3987 144.069 49.3987C144.904 49.3987 145.572 48.675 145.572 47.7843C145.516 46.8936 144.848 46.1699 144.013 46.1699ZM144.013 45.8916C145.071 45.8916 145.85 46.7266 145.85 47.7843C145.85 48.842 145.015 49.677 143.958 49.677C142.9 49.677 142.065 48.842 142.065 47.7843C142.12 46.7266 142.956 45.8916 144.013 45.8916Z" fill="black"/>
<defs>
<linearGradient id="paint0_linear_205_861" x1="7.40385" y1="30.0396" x2="1.82702" y2="19.6475" gradientUnits="userSpaceOnUse">
<stop stop-color="#0070B6"/>
<stop offset="1" stop-color="#1D2C5E"/>
</linearGradient>
<linearGradient id="paint1_linear_205_861" x1="75.4162" y1="8.80898" x2="82.4944" y2="1.22477" gradientUnits="userSpaceOnUse">
<stop stop-color="#0070B6"/>
<stop offset="1" stop-color="#1D2C5E"/>
</linearGradient>
<linearGradient id="paint2_linear_205_861" x1="44.5356" y1="21.4534" x2="43.6916" y2="14.3624" gradientUnits="userSpaceOnUse">
<stop stop-color="#0070B6"/>
<stop offset="1" stop-color="#1D2C5E"/>
</linearGradient>
<linearGradient id="paint3_linear_205_861" x1="121.855" y1="20.0885" x2="121.518" y2="13.6878" gradientUnits="userSpaceOnUse">
<stop stop-color="#125D9E"/>
<stop offset="1" stop-color="#1D2C5E"/>
</linearGradient>
<linearGradient id="paint4_linear_205_861" x1="98.2323" y1="10.8625" x2="90.804" y2="22.6797" gradientUnits="userSpaceOnUse">
<stop stop-color="#125D9E"/>
<stop offset="1" stop-color="#1D2C5E"/>
</linearGradient>
<linearGradient id="paint5_linear_205_861" x1="32.4934" y1="29.8164" x2="37.5581" y2="39.7771" gradientUnits="userSpaceOnUse">
<stop stop-color="#105FA1"/>
<stop offset="1" stop-color="#1D2C5E"/>
</linearGradient>
<linearGradient id="paint6_linear_205_861" x1="13.3832" y1="26.4168" x2="19.245" y2="40.0053" gradientUnits="userSpaceOnUse">
<stop stop-color="#105FA1"/>
<stop offset="1" stop-color="#1D2C5E"/>
</linearGradient>
<linearGradient id="paint7_linear_205_861" x1="39.1096" y1="31.4648" x2="47.9769" y2="31.4648" gradientUnits="userSpaceOnUse">
<stop stop-color="#3C5AA6"/>
<stop offset="0.933" stop-color="#2B73B9"/>
<stop offset="1" stop-color="#2A75BB"/>
</linearGradient>
<linearGradient id="paint8_linear_205_861" x1="2.07418" y1="26.9005" x2="150.008" y2="26.9005" gradientUnits="userSpaceOnUse">
<stop stop-color="#3C5AA6"/>
<stop offset="0.933" stop-color="#2B73B9"/>
<stop offset="1" stop-color="#2A75BB"/>
</linearGradient>
</defs>
</svg>
